<?xml version="1.0" encoding="UTF-8"?><svg id="Layer_2" xmlns="http://www.w3.org/2000/svg" viewBox="0 0 725.77 354.12"><defs><style>.cls-1{fill:#fff;}.cls-2{stroke:#fff;stroke-miterlimit:10;stroke-width:2px;}.cls-2,.cls-3{fill:none;}</style></defs><g id="Layer_1-2"><path class="cls-1" d="m.05,111.53C.05,65.56,26.01,39.2,63.95,39.2s63.9,26.54,63.9,72.32-25.95,73.54-63.9,73.54S.05,157.49.05,111.53Zm95.2,0c0-28.21-12.11-44.86-31.3-44.86s-31.3,16.65-31.3,44.86,12.11,46.08,31.3,46.08,31.3-17.87,31.3-46.08Z"/><path class="cls-1" d="m154.36,41.79h50.67c29.84,0,54.3,10.36,54.3,43.81s-24.46,46.25-54.3,46.25h-18.86v50.63h-31.81V41.79Zm48.08,64.81c16.73,0,25.72-7.16,25.72-21s-8.99-18.56-25.72-18.56h-16.27v39.55h16.27Zm-3.23,16.87l22-20.35,44.9,79.36h-35.59l-31.31-59.01Z"/><path class="cls-1" d="m286.69,41.79h48.15c29.2,0,51.89,8.02,51.89,34.89,0,12.62-7.06,26.05-18.54,30.37v.86c14.37,3.73,25.47,14.32,25.47,33.11,0,28.62-24.21,41.44-54.8,41.44h-52.17V41.79Zm46.68,56.35c15.43,0,22.26-6.52,22.26-16.75,0-10.84-7.21-15.05-22.03-15.05h-15.11v31.81h14.88Zm2.9,59.8c17.34,0,26.3-6.17,26.3-18.96s-8.81-17.36-26.3-17.36h-17.77v36.32h17.77Z"/><path class="cls-1" d="m404.32,164.73l18.26-21.82c10.01,8.71,22.98,14.7,34.56,14.7,13.28,0,19.77-5.23,19.77-13.58,0-8.86-8-11.7-20.29-16.75l-18.28-7.8c-14.58-5.93-28.39-17.9-28.39-38.35,0-23.31,20.82-41.93,50.11-41.93,16.2,0,33.14,6.39,45.26,18.44l-16.06,20.04c-9.27-7.11-18.08-11.02-29.2-11.02s-17.94,4.57-17.94,12.61c0,8.63,9.2,11.76,21.48,16.65l17.93,7.26c17.18,6.95,27.91,18.39,27.91,38.27,0,23.37-19.48,43.61-53,43.61-18.31,0-37.76-6.93-52.11-20.34Z"/><rect class="cls-3" width="725.77" height="354.12"/><path class="cls-2" d="m112.73,222.4h31.54l20.75,56.81c2.56,7.55,4.8,15.74,7.36,23.61h.79c2.56-7.87,4.73-16.06,7.29-23.61l20.1-56.81h31.54v127.87h-26.32v-46.92c0-12.47,2.33-31.07,3.69-43.44h-.79l-10.49,30.26-18.08,48.98h-16.05l-18.11-48.98-10.2-30.26h-.79c1.36,12.37,3.69,30.98,3.69,43.44v46.92h-25.93v-127.87Z"/><path class="cls-2" d="m256.18,285.78c0-41.78,23.59-65.73,58.07-65.73s58.07,24.12,58.07,65.73-23.59,66.84-58.07,66.84-58.07-25.06-58.07-66.84Zm86.52,0c0-25.64-11.01-40.77-28.45-40.77s-28.45,15.14-28.45,40.77,11.01,41.88,28.45,41.88,28.45-16.25,28.45-41.88Z"/><path class="cls-2" d="m396.42,222.4h29.62l33.36,63.59,12.65,28.09h.28c-1.36-13.52-3.19-31.44-3.19-46.51v-45.17h27.54v127.87h-29.62l-33.36-63.76-12.65-27.93h-.79c1.36,14.1,3.69,31.23,3.69,46.3v45.38h-27.54v-127.87Z"/><path class="cls-2" d="m526.88,222.4h80.12v24.24h-51.21v25.68h43.59v24.24h-43.59v29.46h53.17v24.25h-82.08v-127.87Z"/><path class="cls-2" d="m656.34,304.67l-38.52-82.26h30.92l11.42,29.37c3.42,9.58,6.76,18.44,10.41,28.34h.78c3.65-9.9,7.29-18.76,10.8-28.34l11.42-29.37h30.2l-38.52,82.26v45.6h-28.91v-45.6Z"/><circle class="cls-2" cx="63.6" cy="330.5" r="22.5"/></g></svg>