<?xml version="1.0" encoding="UTF-8"?><svg id="Layer_2" xmlns="http://www.w3.org/2000/svg" viewBox="0 0 784 390.5"><defs><style>.cls-1{fill:#fff;}.cls-2{stroke:#fff;stroke-miterlimit:10;stroke-width:2px;}.cls-2,.cls-3{fill:none;}</style></defs><g id="Layer_1-2"><path class="cls-1" d="m.05,146.35C.05,100.38,26.01,74.02,63.95,74.02s63.9,26.54,63.9,72.32-25.95,73.54-63.9,73.54S.05,192.31.05,146.35Zm95.2,0c0-28.21-12.11-44.86-31.3-44.86s-31.3,16.65-31.3,44.86,12.11,46.08,31.3,46.08,31.3-17.87,31.3-46.08Z"/><path class="cls-1" d="m154.36,76.61h50.67c29.84,0,54.3,10.36,54.3,43.81s-24.46,46.25-54.3,46.25h-18.86v50.63h-31.81V76.61Zm48.08,64.81c16.73,0,25.72-7.16,25.72-21s-8.99-18.56-25.72-18.56h-16.27v39.55h16.27Zm-3.23,16.87l22-20.35,44.9,79.36h-35.59l-31.31-59.01Z"/><path class="cls-1" d="m286.69,76.61h48.15c29.2,0,51.89,8.02,51.89,34.89,0,12.62-7.06,26.05-18.54,30.37v.86c14.37,3.73,25.47,14.32,25.47,33.11,0,28.62-24.21,41.44-54.8,41.44h-52.17V76.61Zm46.68,56.35c15.43,0,22.26-6.52,22.26-16.75,0-10.84-7.21-15.05-22.03-15.05h-15.11v31.81h14.88Zm2.9,59.8c17.34,0,26.3-6.17,26.3-18.96s-8.81-17.36-26.3-17.36h-17.77v36.32h17.77Z"/><path class="cls-1" d="m404.32,199.55l18.26-21.82c10.01,8.71,22.98,14.7,34.56,14.7,13.28,0,19.77-5.23,19.77-13.58,0-8.86-8-11.7-20.29-16.75l-18.28-7.8c-14.58-5.93-28.39-17.9-28.39-38.35,0-23.31,20.82-41.93,50.11-41.93,16.2,0,33.14,6.39,45.26,18.44l-16.06,20.04c-9.27-7.11-18.08-11.02-29.2-11.02s-17.94,4.57-17.94,12.61c0,8.63,9.2,11.76,21.48,16.65l17.93,7.26c17.18,6.95,27.91,18.39,27.91,38.27,0,23.37-19.48,43.61-53,43.61-18.31,0-37.76-6.93-52.11-20.34Z"/><path class="cls-2" d="m3.18,259.24h31.55l20.75,56.83c2.56,7.55,4.8,15.74,7.36,23.61h.79c2.56-7.87,4.73-16.07,7.29-23.61l20.1-56.83h31.55v127.9h-26.33v-46.94c0-12.47,2.33-31.08,3.7-43.46h-.79l-10.49,30.27-18.08,49h-16.05l-18.12-49-10.2-30.27h-.79c1.36,12.38,3.7,30.99,3.7,43.46v46.94H3.18v-127.9Z"/><path class="cls-2" d="m146.67,322.64c0-41.79,23.6-65.75,58.09-65.75s58.09,24.13,58.09,65.75-23.6,66.86-58.09,66.86-58.09-25.07-58.09-66.86Zm86.55,0c0-25.64-11.01-40.79-28.46-40.79s-28.46,15.14-28.46,40.79,11.01,41.89,28.46,41.89,28.46-16.25,28.46-41.89Z"/><path class="cls-2" d="m286.95,259.24h29.63l33.37,63.61,12.65,28.1h.28c-1.36-13.53-3.19-31.45-3.19-46.53v-45.18h27.55v127.9h-29.63l-33.37-63.77-12.65-27.94h-.79c1.36,14.11,3.7,31.24,3.7,46.32v45.39h-27.55v-127.9Z"/><path class="cls-2" d="m417.45,259.24h80.14v24.25h-51.22v25.68h43.61v24.25h-43.61v29.47h53.19v24.25h-82.11v-127.9Z"/><path class="cls-2" d="m546.95,341.53l-38.53-82.29h30.93l11.42,29.38c3.42,9.58,6.77,18.45,10.41,28.35h.78c3.65-9.9,7.3-18.77,10.81-28.35l11.42-29.38h30.21l-38.53,82.29v45.62h-28.92v-45.62Z"/><path class="cls-1" d="m636.09,280.47v-9.79h1.03v9.65c0,4.25,1.99,5.52,4.25,5.52s4.34-1.27,4.34-5.52v-9.65h.98v9.79c0,4.92-2.64,6.31-5.33,6.31s-5.28-1.39-5.28-6.31Z"/><path class="cls-1" d="m651.21,274.97h.84l.12,1.8h.05c1.18-1.18,2.38-2.09,3.96-2.09,2.38,0,3.48,1.44,3.48,4.42v7.39h-.98v-7.27c0-2.45-.79-3.65-2.67-3.65-1.39,0-2.4.74-3.82,2.21v8.71h-.98v-11.52Z"/><path class="cls-1" d="m663.93,285.01v-15.79h.98v15.94c0,.55.22.74.55.74.1,0,.19,0,.38-.05l.17.77c-.22.12-.46.17-.74.17-.86,0-1.34-.55-1.34-1.78Z"/><path class="cls-1" d="m668.59,280.76c0-3.84,2.4-6.07,5.16-6.07s5.16,2.23,5.16,6.07-2.4,6.02-5.16,6.02-5.16-2.21-5.16-6.02Zm9.29,0c0-3.07-1.78-5.18-4.13-5.18s-4.13,2.11-4.13,5.18,1.78,5.14,4.13,5.14,4.13-2.06,4.13-5.14Z"/><path class="cls-1" d="m681.4,280.76c0-3.84,2.45-6.07,5.23-6.07,1.58,0,2.59.67,3.38,1.44l-.55.62c-.7-.7-1.61-1.18-2.81-1.18-2.38,0-4.22,2.11-4.22,5.18s1.68,5.14,4.22,5.14c1.25,0,2.33-.55,3.12-1.27l.5.62c-.96.94-2.21,1.54-3.67,1.54-2.95,0-5.21-2.21-5.21-6.02Z"/><path class="cls-1" d="m693.14,269.21h.98v12.82h.05l5.74-7.06h1.15l-3.75,4.56,4.39,6.96h-1.1l-3.87-6.22-2.62,3.07v3.14h-.98v-17.28Z"/><path class="cls-1" d="m709.27,283.35v-7.49h-1.8v-.79l1.82-.1.12-3.82h.84v3.82h3.36v.89h-3.36v7.56c0,1.49.36,2.5,1.97,2.5.43,0,.91-.1,1.46-.36l.31.7c-.62.34-1.32.53-1.9.53-2.21,0-2.83-1.39-2.83-3.43Z"/><path class="cls-1" d="m716.44,269.21h.98v5.04l-.02,2.54c1.22-1.2,2.42-2.11,4.01-2.11,2.38,0,3.48,1.44,3.48,4.42v7.39h-.98v-7.27c0-2.45-.79-3.65-2.67-3.65-1.39,0-2.4.74-3.82,2.21v8.71h-.98v-17.28Z"/><path class="cls-1" d="m728.11,280.76c0-3.77,2.45-6.07,5.02-6.07,2.71,0,4.39,1.92,4.39,5.33,0,.29,0,.55-.05.86h-8.33c.02,2.93,1.75,5.04,4.37,5.04,1.27,0,2.3-.38,3.12-.94l.41.67c-.89.6-1.92,1.13-3.62,1.13-2.93,0-5.3-2.26-5.3-6.02Zm8.47-.74c0-2.98-1.37-4.46-3.46-4.46-1.97,0-3.74,1.68-3.98,4.46h7.44Z"/><path class="cls-1" d="m745.72,283.35v-7.49h-1.8v-.79l1.82-.1.12-3.82h.84v3.82h3.36v.89h-3.36v7.56c0,1.49.36,2.5,1.97,2.5.43,0,.91-.1,1.46-.36l.31.7c-.62.34-1.32.53-1.9.53-2.21,0-2.83-1.39-2.83-3.43Z"/><path class="cls-1" d="m752.9,274.97h.84l.12,2.16h.05c.77-1.42,1.9-2.45,3.26-2.45.41,0,.77.05,1.13.24l-.26.86c-.31-.1-.55-.14-.98-.14-1.06,0-2.28.79-3.17,2.98v7.87h-.98v-11.52Z"/><path class="cls-1" d="m760.27,282.37v-7.39h.98v7.27c0,2.47.79,3.65,2.66,3.65,1.39,0,2.4-.74,3.77-2.4v-8.52h.98v11.52h-.84l-.1-1.94h-.05c-1.15,1.34-2.35,2.23-3.94,2.23-2.38,0-3.48-1.44-3.48-4.42Z"/><path class="cls-1" d="m772.15,280.76c0-3.77,2.45-6.07,5.02-6.07,2.71,0,4.39,1.92,4.39,5.33,0,.29,0,.55-.05.86h-8.33c.02,2.93,1.75,5.04,4.37,5.04,1.27,0,2.3-.38,3.12-.94l.41.67c-.89.6-1.92,1.13-3.62,1.13-2.93,0-5.3-2.26-5.3-6.02Zm8.47-.74c0-2.98-1.37-4.46-3.46-4.46-1.97,0-3.74,1.68-3.98,4.46h7.44Z"/><path class="cls-1" d="m634.07,303.77h1.08l2.62,7.27c.38,1.11.79,2.28,1.18,3.31h.1c.38-1.03.79-2.21,1.18-3.31l2.62-7.27h1.01l-4.27,11.52h-1.15l-4.34-11.52Z"/><path class="cls-1" d="m645.04,312.44c0-2.57,2.33-3.77,7.46-4.34.02-1.8-.46-3.72-2.74-3.72-1.58,0-2.93.77-3.7,1.32l-.46-.72c.79-.6,2.38-1.49,4.25-1.49,2.71,0,3.62,1.99,3.62,4.42v7.39h-.84l-.12-1.51h-.05c-1.18.96-2.59,1.8-4.1,1.8-1.8,0-3.34-.96-3.34-3.14Zm7.46.41v-3.98c-4.82.58-6.46,1.66-6.46,3.53,0,1.68,1.15,2.33,2.5,2.33s2.5-.65,3.96-1.87Z"/><path class="cls-1" d="m657.64,313.81v-15.79h.98v15.94c0,.55.22.74.55.74.1,0,.19,0,.38-.05l.17.77c-.22.12-.46.17-.74.17-.86,0-1.34-.55-1.34-1.78Z"/><path class="cls-1" d="m663.09,311.17v-7.39h.98v7.27c0,2.47.79,3.65,2.66,3.65,1.39,0,2.4-.74,3.77-2.4v-8.52h.98v11.52h-.84l-.1-1.94h-.05c-1.15,1.34-2.35,2.23-3.94,2.23-2.38,0-3.48-1.44-3.48-4.42Z"/><path class="cls-1" d="m674.97,309.56c0-3.77,2.45-6.07,5.02-6.07,2.71,0,4.39,1.92,4.39,5.33,0,.29,0,.55-.05.86h-8.33c.02,2.93,1.75,5.04,4.37,5.04,1.27,0,2.3-.38,3.12-.94l.41.67c-.89.6-1.92,1.13-3.62,1.13-2.93,0-5.3-2.26-5.3-6.02Zm8.47-.74c0-2.98-1.37-4.46-3.46-4.46-1.97,0-3.74,1.68-3.98,4.46h7.44Z"/><path class="cls-1" d="m691.34,309.56c0-3.84,2.4-6.07,5.16-6.07s5.16,2.23,5.16,6.07-2.4,6.02-5.16,6.02-5.16-2.21-5.16-6.02Zm9.29,0c0-3.07-1.78-5.18-4.13-5.18s-4.13,2.11-4.13,5.18,1.78,5.14,4.13,5.14,4.13-2.06,4.13-5.14Z"/><path class="cls-1" d="m705.28,304.66h-1.58v-.79l1.58-.1v-2.62c0-2.28,1.03-3.43,2.81-3.43.53,0,1.18.14,1.66.38l-.29.77c-.48-.19-.94-.29-1.37-.29-1.25,0-1.82.96-1.82,2.64v2.54h2.69v.89h-2.69v10.63h-.98v-10.63Z"/><path class="cls-1" d="m716.18,303.77h.84l.12,2.16h.05c.77-1.42,1.9-2.45,3.26-2.45.41,0,.77.05,1.13.24l-.26.86c-.31-.1-.55-.14-.98-.14-1.06,0-2.28.79-3.17,2.98v7.87h-.98v-11.52Z"/><path class="cls-1" d="m722.39,312.44c0-2.57,2.33-3.77,7.46-4.34.02-1.8-.46-3.72-2.74-3.72-1.58,0-2.93.77-3.7,1.32l-.46-.72c.79-.6,2.38-1.49,4.25-1.49,2.71,0,3.62,1.99,3.62,4.42v7.39h-.84l-.12-1.51h-.05c-1.18.96-2.59,1.8-4.1,1.8-1.8,0-3.34-.96-3.34-3.14Zm7.46.41v-3.98c-4.82.58-6.46,1.66-6.46,3.53,0,1.68,1.15,2.33,2.5,2.33s2.5-.65,3.96-1.87Z"/><path class="cls-1" d="m734.99,303.77h.84l.12,2.16h.05c.77-1.42,1.9-2.45,3.26-2.45.41,0,.77.05,1.13.24l-.26.86c-.31-.1-.55-.14-.98-.14-1.06,0-2.28.79-3.17,2.98v7.87h-.98v-11.52Z"/><path class="cls-1" d="m742.17,300c0-.53.38-.91.89-.91s.89.38.89.91c0,.58-.38.96-.89.96s-.89-.38-.89-.96Zm.38,3.77h.98v11.52h-.98v-11.52Z"/><path class="cls-1" d="m748.26,312.15v-7.49h-1.8v-.79l1.82-.1.12-3.82h.84v3.82h3.36v.89h-3.36v7.56c0,1.49.36,2.5,1.97,2.5.43,0,.91-.1,1.46-.36l.31.7c-.62.34-1.32.53-1.9.53-2.21,0-2.83-1.39-2.83-3.43Z"/><path class="cls-1" d="m753.76,320.31l.26-.84c.26.1.62.17.91.17,1.42,0,2.38-1.32,2.98-3.1l.31-1.01-4.73-11.76h1.08l2.81,7.32c.38.96.84,2.21,1.27,3.22h.1c.36-1.01.74-2.26,1.06-3.22l2.5-7.32h1.01l-4.56,13.01c-.62,1.9-1.8,3.77-3.84,3.77-.41,0-.84-.1-1.15-.24Z"/><path class="cls-1" d="m634.36,332.57h1.06l2.11,7.54c.29,1.06.58,2.02.79,3.07h.1c.29-1.06.55-2.02.84-3.07l2.11-7.54h1.25l2.11,7.54c.29,1.06.58,2.02.84,3.07h.1c.29-1.06.55-2.02.84-3.07l2.06-7.54h1.01l-3.34,11.52h-1.32l-2.04-7.25c-.31-1.08-.55-2.14-.86-3.29h-.1c-.29,1.15-.55,2.23-.94,3.34l-1.99,7.2h-1.22l-3.41-11.52Z"/><path class="cls-1" d="m652,328.8c0-.53.38-.91.89-.91s.89.38.89.91c0,.58-.38.96-.89.96s-.89-.38-.89-.96Zm.38,3.77h.98v11.52h-.98v-11.52Z"/><path class="cls-1" d="m658.1,340.95v-7.49h-1.8v-.79l1.82-.1.12-3.82h.84v3.82h3.36v.89h-3.36v7.56c0,1.49.36,2.5,1.97,2.5.43,0,.91-.1,1.46-.36l.31.7c-.62.34-1.32.53-1.9.53-2.21,0-2.83-1.39-2.83-3.43Z"/><path class="cls-1" d="m665.27,326.81h.98v5.04l-.02,2.54c1.22-1.2,2.42-2.11,4.01-2.11,2.38,0,3.48,1.44,3.48,4.42v7.39h-.98v-7.27c0-2.45-.79-3.65-2.67-3.65-1.39,0-2.4.74-3.82,2.21v8.71h-.98v-17.28Z"/><path class="cls-1" d="m681.81,336.12c0-4.99,2.71-8.14,6.5-8.14s6.48,3.14,6.48,8.14-2.69,8.26-6.48,8.26-6.5-3.24-6.5-8.26Zm11.91,0c0-4.42-2.16-7.2-5.4-7.2s-5.42,2.78-5.42,7.2,2.18,7.32,5.42,7.32,5.4-2.88,5.4-7.32Z"/><path class="cls-1" d="m698.34,332.57h.84l.12,2.16h.05c.77-1.42,1.9-2.45,3.26-2.45.41,0,.77.05,1.13.24l-.26.86c-.31-.1-.55-.14-.98-.14-1.06,0-2.28.79-3.17,2.98v7.87h-.98v-11.52Z"/><path class="cls-1" d="m706.89,342.94h-.05l-.12,1.15h-.82v-17.28h.98v5.04l-.05,2.26c1.18-.98,2.59-1.82,3.98-1.82,3.1,0,4.63,2.33,4.63,5.88,0,3.91-2.38,6.22-5.09,6.22-1.1,0-2.38-.58-3.48-1.44Zm7.51-4.78c0-2.86-1.01-4.99-3.72-4.99-1.15,0-2.42.67-3.79,1.92v6.91c1.27,1.08,2.57,1.49,3.43,1.49,2.38,0,4.08-2.18,4.08-5.33Z"/><path class="cls-1" d="m717.45,342.77l.53-.62c.96.82,1.99,1.37,3.72,1.37,1.85,0,2.81-1.08,2.81-2.3,0-1.46-1.49-2.11-2.83-2.59-1.78-.62-3.6-1.32-3.6-3.29,0-1.63,1.3-3.05,3.7-3.05,1.3,0,2.42.5,3.26,1.2l-.55.62c-.77-.58-1.58-.96-2.76-.96-1.82,0-2.64,1.06-2.64,2.14,0,1.32,1.25,1.82,2.64,2.35,1.82.7,3.79,1.27,3.79,3.5,0,1.73-1.39,3.24-3.86,3.24-1.8,0-3.22-.62-4.2-1.61Z"/><path class="cls-1" d="m733.5,328.28h1.1l6.72,11.23c.6,1.06,1.22,2.14,1.78,3.19h.1c-.05-1.56-.12-3.07-.12-4.58v-9.84h.96v15.82h-1.08l-6.72-11.23c-.62-1.06-1.25-2.16-1.8-3.19h-.1c.05,1.51.12,2.93.12,4.44v9.98h-.96v-15.82Z"/><path class="cls-1" d="m748.74,328.28h8.57v.89h-7.54v6.38h6.38v.89h-6.38v7.66h-1.03v-15.82Z"/><path class="cls-1" d="m763.55,329.17h-5.04v-.89h11.14v.89h-5.06v14.93h-1.03v-14.93Z"/><path class="cls-1" d="m769.74,342.77l.53-.62c.96.82,1.99,1.37,3.72,1.37,1.85,0,2.81-1.08,2.81-2.3,0-1.46-1.49-2.11-2.83-2.59-1.78-.62-3.6-1.32-3.6-3.29,0-1.63,1.3-3.05,3.7-3.05,1.3,0,2.42.5,3.26,1.2l-.55.62c-.77-.58-1.58-.96-2.76-.96-1.82,0-2.64,1.06-2.64,2.14,0,1.32,1.25,1.82,2.64,2.35,1.82.7,3.79,1.27,3.79,3.5,0,1.73-1.39,3.24-3.86,3.24-1.8,0-3.22-.62-4.2-1.61Z"/><rect class="cls-2" x="634" y="363.5" width="147.5" height="25"/><rect class="cls-3" width="784" height="389"/></g></svg>